<svg xmlns="http://www.w3.org/2000/svg" viewBox="0 0 658 731"><path fill="#1b3658" fill-rule="evenodd" d="M69 356L67 358L66 368L68 385L68 536L86 549L151 586L191 612L200 615L208 621L212 621L214 619L214 492L212 465L204 443L195 432L173 414L139 397L126 387L92 369L73 356ZM465 319L375 372L356 393L343 423L345 427L352 425L388 405L396 398L414 389L426 380L434 377L436 379L436 510L434 513L428 513L328 452L324 454L323 617L326 621L361 603L378 591L394 583L399 578L414 571L421 565L441 555L469 537L469 322ZM271 114L264 115L231 136L221 140L205 151L200 152L178 167L164 173L148 185L83 221L61 236L15 262L10 267L10 294L14 299L28 305L36 312L45 315L110 356L128 364L140 373L181 396L202 411L222 433L227 443L233 466L234 659L232 662L229 662L175 629L131 605L121 597L108 591L95 581L49 556L44 551L44 533L42 528L42 514L44 510L44 496L42 491L42 474L44 471L44 453L42 450L42 434L44 430L42 394L44 390L44 371L42 368L43 339L28 328L13 321L11 322L10 568L15 573L25 577L79 612L107 626L122 637L157 656L170 666L261 718L265 715L265 473L263 455L254 424L236 397L206 373L147 340L138 332L99 311L95 307L73 296L54 284L51 280L59 273L83 261L130 231L140 227L148 220L219 181L225 175L242 167L245 163L265 152L270 152L291 163L367 209L374 209L399 194L399 189L389 185L384 180L319 144L295 127L290 126ZM628 12L625 13L618 33L608 48L606 55L586 83L564 106L543 124L529 133L523 140L489 161L463 174L391 219L382 222L347 244L316 269L289 301L289 295L302 277L307 266L316 255L346 227L346 224L319 206L270 179L260 181L210 211L200 219L181 228L143 252L131 257L95 280L96 284L108 290L132 307L141 310L153 319L170 327L177 333L223 359L245 378L265 404L269 398L272 376L282 353L299 325L323 300L334 293L341 285L396 250L434 230L439 225L449 221L549 161L580 137L610 106L613 107L609 125L601 145L587 165L575 177L543 201L499 226L492 232L450 254L444 260L435 263L416 276L371 300L348 316L340 324L328 331L307 353L290 379L278 410L272 438L271 715L274 720L322 693L359 668L424 632L448 615L456 612L475 599L484 596L525 570L527 544L527 497L525 491L525 320L530 315L572 293L588 276L606 243L607 235L614 227L615 207L610 207L600 224L578 246L567 253L557 263L545 268L497 297L492 303L492 347L494 358L494 402L492 411L494 549L475 564L457 572L452 577L427 590L345 641L306 662L303 652L303 474L307 428L311 414L330 380L362 347L402 321L415 310L422 308L437 297L474 277L481 270L499 262L526 244L575 218L600 200L628 168L637 149L638 140L644 127L645 108L647 104L647 88L637 31L632 24Z"/></svg>