<svg xmlns="http://www.w3.org/2000/svg" viewBox="0 0 1200 900">
<defs>
 <linearGradient id="bg" x1="0" y1="0" x2="1" y2="1"><stop stop-color="#eaf5fb"/><stop offset="1" stop-color="#fbfcfd"/></linearGradient>
 <linearGradient id="navy" x1=".1" y1="0" x2=".9" y2="1"><stop stop-color="#2e658e"/><stop offset=".55" stop-color="#123b61"/><stop offset="1" stop-color="#071525"/></linearGradient>
 <linearGradient id="silver" x1="0" y1="0" x2="1" y2="1"><stop stop-color="#f7fafb"/><stop offset=".5" stop-color="#acbbc5"/><stop offset="1" stop-color="#e2e8ec"/></linearGradient>
 <filter id="s"><feDropShadow dx="0" dy="26" stdDeviation="22" flood-color="#071525" flood-opacity=".22"/></filter>
</defs>
<rect width="1200" height="900" fill="url(#bg)"/>
<ellipse cx="610" cy="718" rx="430" ry="68" fill="#071525" opacity=".08"/>
<g filter="url(#s)">
 <path d="M205 420c0-70 57-127 127-127h220c70 0 127 57 127 127v170c0 70-57 127-127 127H332c-70 0-127-57-127-127V420Z" fill="url(#navy)"/>
 <rect x="280" y="370" width="324" height="270" rx="70" fill="#0a2a47" stroke="#79dff3" stroke-opacity=".38" stroke-width="5"/>
 <circle cx="442" cy="505" r="83" fill="url(#silver)"/>
 <circle cx="442" cy="505" r="41" fill="#123b61"/>
 <g transform="translate(690 242)">
  <path d="M0 105 130 0l150 70-4 190-132 105L0 294V105Z" fill="url(#silver)" stroke="#8799a5" stroke-width="4"/>
  <path d="M130 0v190L0 294M130 190l146 70" fill="none" stroke="#78909f" stroke-width="5"/>
  <circle cx="139" cy="168" r="48" fill="#123b61"/>
 </g>
 <g transform="translate(738 545)">
   <rect width="235" height="125" rx="45" fill="url(#navy)"/>
   <rect x="52" y="35" width="130" height="55" rx="20" fill="#79dff3" opacity=".45"/>
 </g>
</g>
</svg>
