<svg xmlns="http://www.w3.org/2000/svg" viewBox="0 0 1200 900">
<defs>
 <linearGradient id="bg" x1="0" y1="0" x2="1" y2="1"><stop stop-color="#eaf5fb"/><stop offset="1" stop-color="#fbfcfd"/></linearGradient>
 <linearGradient id="navy" x1=".1" y1="0" x2=".9" y2="1"><stop stop-color="#2f678f"/><stop offset=".52" stop-color="#123b61"/><stop offset="1" stop-color="#071525"/></linearGradient>
 <linearGradient id="cyan" x1="0" y1="0" x2="1" y2="1"><stop stop-color="#baf4ff"/><stop offset="1" stop-color="#52cce5"/></linearGradient>
 <filter id="s"><feDropShadow dx="0" dy="25" stdDeviation="22" flood-color="#071525" flood-opacity=".2"/></filter>
</defs>
<rect width="1200" height="900" fill="url(#bg)"/>
<ellipse cx="603" cy="730" rx="440" ry="72" fill="#071525" opacity=".08"/>
<g filter="url(#s)">
 <rect x="160" y="280" width="880" height="390" rx="38" fill="#fff" stroke="#a9bac6" stroke-width="5"/>
 <rect x="205" y="335" width="160" height="275" rx="20" fill="url(#navy)"/>
 <rect x="405" y="335" width="160" height="275" rx="20" fill="url(#navy)"/>
 <rect x="605" y="335" width="160" height="275" rx="20" fill="url(#navy)"/>
 <rect x="805" y="335" width="190" height="275" rx="20" fill="url(#cyan)"/>
 <g fill="#79dff3" opacity=".72">
  <circle cx="285" cy="405" r="24"/><circle cx="485" cy="405" r="24"/><circle cx="685" cy="405" r="24"/>
 </g>
 <path d="M230 520h110M430 520h110M630 520h110" stroke="#fff" stroke-opacity=".68" stroke-width="14" stroke-linecap="round"/>
 <path d="M835 405h130M835 460h130M835 515h90" stroke="#123b61" stroke-opacity=".72" stroke-width="13" stroke-linecap="round"/>
 <path d="M195 245h810" stroke="#123b61" stroke-width="24" stroke-linecap="round"/>
 <circle cx="335" cy="245" r="28" fill="#79dff3"/>
 <circle cx="600" cy="245" r="28" fill="#2c86f6"/>
 <circle cx="865" cy="245" r="28" fill="#79dff3"/>
</g>
</svg>
